<svg width="22" height="23" viewBox="0 0 22 23" fill="none" xmlns="http://www.w3.org/2000/svg">
<rect width="22" height="23" fill="#1E1E1E"/>
<g id="Landing">
<g id="3. Course We Offer" clip-path="url(#clip0_0_1)">
<rect width="1440" height="864" transform="translate(-296 -723)" fill="#ECF8FF"/>
<g id="Course Cards">
<g id="Sapling Card">
<rect x="-83" y="-499" width="496" height="561" rx="8" fill="white"/>
<g id="Frame 1000002027">
<g id="CTA Button">
<rect x="-47.5" y="-15.5" width="202" height="54" rx="7.5" fill="white"/>
<g id="Frame" clip-path="url(#clip1_0_1)">
<path id="Vector" d="M11.9193 9.66667H16.5026L11.0026 15.1667L5.5026 9.66667H10.0859V3.25H11.9193V9.66667ZM3.66927 17.9167H18.3359V11.5H20.1693V18.8333C20.1693 19.0764 20.0727 19.3096 19.9008 19.4815C19.7289 19.6534 19.4957 19.75 19.2526 19.75H2.7526C2.50949 19.75 2.27633 19.6534 2.10442 19.4815C1.93251 19.3096 1.83594 19.0764 1.83594 18.8333V11.5H3.66927V17.9167Z" fill="#2F80ED"/>
</g>
<rect x="-47.5" y="-15.5" width="202" height="54" rx="7.5" stroke="#2F80ED"/>
</g>
</g>
<rect x="-83" y="-499" width="496" height="561" rx="8" stroke="#2F80ED" stroke-width="2"/>
</g>
</g>
</g>
</g>
<defs>
<clipPath id="clip0_0_1">
<rect width="1440" height="864" fill="white" transform="translate(-296 -723)"/>
</clipPath>
<clipPath id="clip1_0_1">
<rect width="22" height="22" fill="white" transform="translate(0 0.5)"/>
</clipPath>
</defs>
</svg>
