<svg width="638" height="49" viewBox="0 0 638 49" fill="none" xmlns="http://www.w3.org/2000/svg">
<path d="M6.25 2H11L5.6 32.75H21.65L20.9 37H0.1L6.25 2ZM23.8559 26.75C23.8559 23.5167 24.5559 20.6833 25.9559 18.25C27.3892 15.7833 29.3559 13.8667 31.8559 12.5C34.3559 11.1 37.2059 10.4 40.4059 10.4C42.3725 10.4 44.0892 10.6 45.5559 11C47.0559 11.4 48.2892 11.8 49.2559 12.2L46.1059 29.95C46.0725 30.1167 46.0392 30.3167 46.0059 30.55C46.0059 30.75 46.0059 30.9667 46.0059 31.2C46.0059 32.1333 46.2725 32.8 46.8059 33.2C47.3392 33.5667 48.0392 33.75 48.9059 33.75L47.3559 37.25C45.5559 37.25 44.1725 36.8167 43.2059 35.95C42.2725 35.05 41.8059 33.6667 41.8059 31.8C40.8725 33.4 39.6892 34.7667 38.2559 35.9C36.8559 37.0333 35.2059 37.6 33.3059 37.6C31.6725 37.6 30.1392 37.1667 28.7059 36.3C27.2725 35.4 26.1059 34.15 25.2059 32.55C24.3059 30.9167 23.8559 28.9833 23.8559 26.75ZM44.3059 14.85C43.6725 14.65 43.0059 14.5 42.3059 14.4C41.6392 14.2667 40.8225 14.2 39.8559 14.2C37.5559 14.2 35.5559 14.7167 33.8559 15.75C32.1559 16.7833 30.8225 18.2167 29.8559 20.05C28.9225 21.85 28.4559 23.9 28.4559 26.2C28.4559 27.8 28.7392 29.15 29.3059 30.25C29.9059 31.35 30.6725 32.1833 31.6059 32.75C32.5392 33.3167 33.5059 33.6 34.5059 33.6C35.8725 33.6 37.1225 33.1333 38.2559 32.2C39.3892 31.2667 40.3559 29.9667 41.1559 28.3C41.9892 26.6333 42.5892 24.7333 42.9559 22.6L44.3059 14.85ZM60.5457 37.6C59.2124 37.6 57.979 37.3 56.8457 36.7C55.7457 36.1 54.8624 35.2667 54.1957 34.2C53.529 33.1 53.1957 31.8 53.1957 30.3C53.1957 29.8667 53.2124 29.4333 53.2457 29C53.279 28.5333 53.329 28.05 53.3957 27.55L56.2457 11H60.7457L57.8457 27.45C57.8124 27.7833 57.779 28.0833 57.7457 28.35C57.7124 28.5833 57.6957 28.85 57.6957 29.15C57.6957 30.65 58.129 31.7667 58.9957 32.5C59.8624 33.2333 60.879 33.6 62.0457 33.6C63.3124 33.6 64.5457 33.2167 65.7457 32.45C66.979 31.65 68.0624 30.5167 68.9957 29.05C69.929 27.5833 70.579 25.8167 70.9457 23.75L73.1957 11H77.6957L74.3957 29.95C74.3624 30.1167 74.329 30.3167 74.2957 30.55C74.2957 30.75 74.2957 30.9667 74.2957 31.2C74.2957 32.1333 74.5624 32.8 75.0957 33.2C75.629 33.5667 76.329 33.75 77.1957 33.75L75.6457 37.25C73.8457 37.25 72.4624 36.8167 71.4957 35.95C70.5624 35.05 70.0957 33.6667 70.0957 31.8V31.35C67.6624 35.5167 64.479 37.6 60.5457 37.6ZM97.2508 14.35C96.0841 14.35 94.8174 14.7833 93.4508 15.65C92.0841 16.5167 90.8174 17.8667 89.6508 19.7C88.5174 21.5 87.7008 23.8167 87.2008 26.65L85.4008 37H80.9008L85.4508 11H89.8008L88.7008 17C89.7341 15 91.1174 13.4 92.8508 12.2C94.6174 11 96.4674 10.4 98.4008 10.4C100.667 10.4 102.484 11.1 103.851 12.5C105.217 13.8667 105.901 15.55 105.901 17.55C105.901 18.3833 105.801 19.4333 105.601 20.7L102.751 37H98.2508L101.001 21.45C101.167 20.65 101.267 20.0667 101.301 19.7C101.334 19.3 101.351 18.9333 101.351 18.6C101.351 17.3 100.967 16.2667 100.201 15.5C99.4674 14.7333 98.4841 14.35 97.2508 14.35ZM129.294 16.25C128.461 15.7167 127.561 15.2833 126.594 14.95C125.627 14.5833 124.561 14.4 123.394 14.4C121.561 14.4 119.944 14.8833 118.544 15.85C117.177 16.8167 116.111 18.1333 115.344 19.8C114.577 21.4333 114.194 23.2833 114.194 25.35C114.194 27.8833 114.827 29.9 116.094 31.4C117.394 32.8667 119.127 33.6 121.294 33.6C122.561 33.6 123.677 33.45 124.644 33.15C125.611 32.85 126.494 32.5 127.294 32.1L127.844 36.05C127.011 36.4167 125.994 36.7667 124.794 37.1C123.627 37.4333 122.211 37.6 120.544 37.6C118.377 37.6 116.461 37.1167 114.794 36.15C113.161 35.1833 111.877 33.8333 110.944 32.1C110.044 30.3333 109.594 28.2833 109.594 25.95C109.594 23.15 110.161 20.5833 111.294 18.25C112.461 15.8833 114.094 13.9833 116.194 12.55C118.327 11.1167 120.844 10.4 123.744 10.4C125.311 10.4 126.694 10.6 127.894 11C129.127 11.3667 130.211 11.8333 131.144 12.4L129.294 16.25ZM152.292 18.6C152.292 17.3333 151.909 16.3167 151.142 15.55C150.409 14.75 149.442 14.35 148.242 14.35C147.076 14.35 145.792 14.7667 144.392 15.6C143.026 16.4333 141.776 17.7333 140.642 19.5C139.509 21.2667 138.692 23.55 138.192 26.35L136.342 37H131.842L138.342 -4.76837e-07H142.842L139.942 16.45C140.976 14.6167 142.326 13.15 143.992 12.05C145.692 10.95 147.476 10.4 149.342 10.4C151.642 10.4 153.459 11.1 154.792 12.5C156.159 13.8667 156.842 15.55 156.842 17.55C156.842 18.3833 156.742 19.4333 156.542 20.7L153.692 37H149.192L151.942 21.45C152.109 20.65 152.209 20.0667 152.242 19.7C152.276 19.3 152.292 18.9333 152.292 18.6ZM184.176 33C185.442 33 186.676 32.6 187.876 31.8C189.109 31 190.192 29.85 191.126 28.35C192.059 26.8167 192.709 24.9667 193.076 22.8L195.126 11H199.626L195.076 37.3C194.676 39.6 194.059 41.4833 193.226 42.95C192.426 44.4167 191.476 45.55 190.376 46.35C189.309 47.1833 188.176 47.7667 186.976 48.1C185.776 48.4333 184.592 48.6 183.426 48.6C181.159 48.6 179.226 48.1333 177.626 47.2C176.059 46.2667 174.776 45.1833 173.776 43.95L177.276 41.35C178.909 43.5833 181.059 44.7 183.726 44.7C185.392 44.7 186.859 44.0833 188.126 42.85C189.392 41.6167 190.292 39.5167 190.826 36.55L191.776 31.25C190.776 32.85 189.509 34.2167 187.976 35.35C186.442 36.45 184.676 37 182.676 37C181.376 37 180.176 36.7167 179.076 36.15C177.976 35.55 177.092 34.7 176.426 33.6C175.759 32.5 175.426 31.2 175.426 29.7C175.426 29.3333 175.426 28.9167 175.426 28.45C175.459 27.9833 175.526 27.4833 175.626 26.95L178.326 11H182.826L180.076 26.85C179.976 27.45 179.926 28.0167 179.926 28.55C179.926 30.05 180.342 31.1667 181.176 31.9C182.042 32.6333 183.042 33 184.176 33ZM214.103 37.6C211.636 37.6 209.503 37.1 207.703 36.1C205.903 35.1 204.503 33.7167 203.503 31.95C202.536 30.15 202.053 28.1167 202.053 25.85C202.053 22.95 202.636 20.3333 203.803 18C205.003 15.6667 206.67 13.8167 208.803 12.45C210.936 11.0833 213.453 10.4 216.353 10.4C218.82 10.4 220.953 10.9 222.753 11.9C224.553 12.9 225.936 14.2833 226.903 16.05C227.903 17.8167 228.403 19.85 228.403 22.15C228.403 25.0167 227.82 27.6333 226.653 30C225.486 32.3333 223.82 34.1833 221.653 35.55C219.52 36.9167 217.003 37.6 214.103 37.6ZM214.253 33.6C216.253 33.6 217.953 33.1167 219.353 32.15C220.786 31.15 221.886 29.8167 222.653 28.15C223.42 26.4833 223.803 24.6167 223.803 22.55C223.803 21.0167 223.503 19.65 222.903 18.45C222.303 17.2167 221.436 16.2333 220.303 15.5C219.17 14.7667 217.803 14.4 216.203 14.4C214.236 14.4 212.536 14.9 211.103 15.9C209.67 16.8667 208.57 18.1833 207.803 19.85C207.036 21.5167 206.653 23.3833 206.653 25.45C206.653 26.95 206.953 28.3167 207.553 29.55C208.153 30.7833 209.02 31.7667 210.153 32.5C211.286 33.2333 212.653 33.6 214.253 33.6ZM239.182 37.6C237.849 37.6 236.616 37.3 235.482 36.7C234.382 36.1 233.499 35.2667 232.832 34.2C232.166 33.1 231.832 31.8 231.832 30.3C231.832 29.8667 231.849 29.4333 231.882 29C231.916 28.5333 231.966 28.05 232.032 27.55L234.882 11H239.382L236.482 27.45C236.449 27.7833 236.416 28.0833 236.382 28.35C236.349 28.5833 236.332 28.85 236.332 29.15C236.332 30.65 236.766 31.7667 237.632 32.5C238.499 33.2333 239.516 33.6 240.682 33.6C241.949 33.6 243.182 33.2167 244.382 32.45C245.616 31.65 246.699 30.5167 247.632 29.05C248.566 27.5833 249.216 25.8167 249.582 23.75L251.832 11H256.332L253.032 29.95C252.999 30.1167 252.966 30.3167 252.932 30.55C252.932 30.75 252.932 30.9667 252.932 31.2C252.932 32.1333 253.199 32.8 253.732 33.2C254.266 33.5667 254.966 33.75 255.832 33.75L254.282 37.25C252.482 37.25 251.099 36.8167 250.132 35.95C249.199 35.05 248.732 33.6667 248.732 31.8V31.35C246.299 35.5167 243.116 37.6 239.182 37.6ZM263.588 18.3C263.621 18.1333 263.638 17.95 263.638 17.75C263.671 17.5167 263.688 17.2833 263.688 17.05C263.688 16.1167 263.421 15.4667 262.888 15.1C262.354 14.7 261.654 14.5 260.788 14.5L262.338 11C264.104 11 265.454 11.4333 266.388 12.3C267.354 13.1333 267.838 14.3833 267.838 16.05V17.05C268.804 14.6833 270.038 12.9833 271.538 11.95C273.071 10.9167 274.804 10.4 276.738 10.4C277.504 10.4 278.154 10.4667 278.688 10.6C279.254 10.7 279.721 10.8333 280.088 11L278.088 15.4C277.688 15.2333 277.271 15.1167 276.838 15.05C276.404 14.9833 275.904 14.95 275.338 14.95C274.138 14.95 272.938 15.3833 271.738 16.25C270.571 17.0833 269.504 18.4833 268.538 20.45C267.604 22.4167 266.838 25.1167 266.238 28.55L264.788 37H260.288L263.588 18.3ZM312.991 16.25C312.158 15.7167 311.258 15.2833 310.291 14.95C309.325 14.5833 308.258 14.4 307.091 14.4C305.258 14.4 303.641 14.8833 302.241 15.85C300.875 16.8167 299.808 18.1333 299.041 19.8C298.275 21.4333 297.891 23.2833 297.891 25.35C297.891 27.8833 298.525 29.9 299.791 31.4C301.091 32.8667 302.825 33.6 304.991 33.6C306.258 33.6 307.375 33.45 308.341 33.15C309.308 32.85 310.191 32.5 310.991 32.1L311.541 36.05C310.708 36.4167 309.691 36.7667 308.491 37.1C307.325 37.4333 305.908 37.6 304.241 37.6C302.075 37.6 300.158 37.1167 298.491 36.15C296.858 35.1833 295.575 33.8333 294.641 32.1C293.741 30.3333 293.291 28.2833 293.291 25.95C293.291 23.15 293.858 20.5833 294.991 18.25C296.158 15.8833 297.791 13.9833 299.891 12.55C302.025 11.1167 304.541 10.4 307.441 10.4C309.008 10.4 310.391 10.6 311.591 11C312.825 11.3667 313.908 11.8333 314.841 12.4L312.991 16.25ZM314.807 26.75C314.807 23.5167 315.507 20.6833 316.907 18.25C318.34 15.7833 320.307 13.8667 322.807 12.5C325.307 11.1 328.157 10.4 331.357 10.4C333.324 10.4 335.04 10.6 336.507 11C338.007 11.4 339.24 11.8 340.207 12.2L337.057 29.95C337.024 30.1167 336.99 30.3167 336.957 30.55C336.957 30.75 336.957 30.9667 336.957 31.2C336.957 32.1333 337.224 32.8 337.757 33.2C338.29 33.5667 338.99 33.75 339.857 33.75L338.307 37.25C336.507 37.25 335.124 36.8167 334.157 35.95C333.224 35.05 332.757 33.6667 332.757 31.8C331.824 33.4 330.64 34.7667 329.207 35.9C327.807 37.0333 326.157 37.6 324.257 37.6C322.624 37.6 321.09 37.1667 319.657 36.3C318.224 35.4 317.057 34.15 316.157 32.55C315.257 30.9167 314.807 28.9833 314.807 26.75ZM335.257 14.85C334.624 14.65 333.957 14.5 333.257 14.4C332.59 14.2667 331.774 14.2 330.807 14.2C328.507 14.2 326.507 14.7167 324.807 15.75C323.107 16.7833 321.774 18.2167 320.807 20.05C319.874 21.85 319.407 23.9 319.407 26.2C319.407 27.8 319.69 29.15 320.257 30.25C320.857 31.35 321.624 32.1833 322.557 32.75C323.49 33.3167 324.457 33.6 325.457 33.6C326.824 33.6 328.074 33.1333 329.207 32.2C330.34 31.2667 331.307 29.9667 332.107 28.3C332.94 26.6333 333.54 24.7333 333.907 22.6L335.257 14.85ZM347.697 18.3C347.73 18.1333 347.747 17.95 347.747 17.75C347.78 17.5167 347.797 17.2833 347.797 17.05C347.797 16.1167 347.53 15.4667 346.997 15.1C346.464 14.7 345.764 14.5 344.897 14.5L346.447 11C348.214 11 349.564 11.4333 350.497 12.3C351.464 13.1333 351.947 14.3833 351.947 16.05V17.05C352.914 14.6833 354.147 12.9833 355.647 11.95C357.18 10.9167 358.914 10.4 360.847 10.4C361.614 10.4 362.264 10.4667 362.797 10.6C363.364 10.7 363.83 10.8333 364.197 11L362.197 15.4C361.797 15.2333 361.38 15.1167 360.947 15.05C360.514 14.9833 360.014 14.95 359.447 14.95C358.247 14.95 357.047 15.3833 355.847 16.25C354.68 17.0833 353.614 18.4833 352.647 20.45C351.714 22.4167 350.947 25.1167 350.347 28.55L348.897 37H344.397L347.697 18.3ZM373.872 37.6C371.672 37.6 369.722 37.1333 368.022 36.2C366.356 35.2333 365.039 33.8667 364.072 32.1C363.139 30.3 362.672 28.1833 362.672 25.75C362.672 22.9833 363.239 20.4333 364.372 18.1C365.539 15.7667 367.172 13.9 369.272 12.5C371.406 11.1 373.889 10.4 376.722 10.4C378.656 10.4 380.289 10.7667 381.622 11.5C382.989 12.2333 384.039 13.1833 384.772 14.35C385.506 15.5167 385.872 16.7667 385.872 18.1C385.872 19.9333 385.439 21.45 384.572 22.65C383.706 23.85 382.589 24.7833 381.222 25.45C379.856 26.0833 378.372 26.5333 376.772 26.8C375.206 27.0667 373.706 27.2 372.272 27.2C371.372 27.2 370.472 27.1667 369.572 27.1C368.706 27 367.939 26.9 367.272 26.8C367.539 29 368.322 30.6833 369.622 31.85C370.922 33.0167 372.589 33.6 374.622 33.6C376.289 33.6 377.772 33.3833 379.072 32.95C380.372 32.5167 381.472 32.0833 382.372 31.65L382.772 35.65C381.772 36.1167 380.506 36.5667 378.972 37C377.439 37.4 375.739 37.6 373.872 37.6ZM376.372 14.2C374.806 14.2 373.389 14.6 372.122 15.4C370.856 16.1667 369.806 17.2333 368.972 18.6C368.172 19.9333 367.639 21.4667 367.372 23.2C368.139 23.3333 368.906 23.45 369.672 23.55C370.472 23.6167 371.339 23.65 372.272 23.65C375.072 23.65 377.289 23.2667 378.922 22.5C380.556 21.7 381.372 20.35 381.372 18.45C381.372 17.2833 380.906 16.2833 379.972 15.45C379.072 14.6167 377.872 14.2 376.372 14.2ZM399.001 37.6C396.801 37.6 394.851 37.1333 393.151 36.2C391.485 35.2333 390.168 33.8667 389.201 32.1C388.268 30.3 387.801 28.1833 387.801 25.75C387.801 22.9833 388.368 20.4333 389.501 18.1C390.668 15.7667 392.301 13.9 394.401 12.5C396.535 11.1 399.018 10.4 401.851 10.4C403.785 10.4 405.418 10.7667 406.751 11.5C408.118 12.2333 409.168 13.1833 409.901 14.35C410.635 15.5167 411.001 16.7667 411.001 18.1C411.001 19.9333 410.568 21.45 409.701 22.65C408.835 23.85 407.718 24.7833 406.351 25.45C404.985 26.0833 403.501 26.5333 401.901 26.8C400.335 27.0667 398.835 27.2 397.401 27.2C396.501 27.2 395.601 27.1667 394.701 27.1C393.835 27 393.068 26.9 392.401 26.8C392.668 29 393.451 30.6833 394.751 31.85C396.051 33.0167 397.718 33.6 399.751 33.6C401.418 33.6 402.901 33.3833 404.201 32.95C405.501 32.5167 406.601 32.0833 407.501 31.65L407.901 35.65C406.901 36.1167 405.635 36.5667 404.101 37C402.568 37.4 400.868 37.6 399.001 37.6ZM401.501 14.2C399.935 14.2 398.518 14.6 397.251 15.4C395.985 16.1667 394.935 17.2333 394.101 18.6C393.301 19.9333 392.768 21.4667 392.501 23.2C393.268 23.3333 394.035 23.45 394.801 23.55C395.601 23.6167 396.468 23.65 397.401 23.65C400.201 23.65 402.418 23.2667 404.051 22.5C405.685 21.7 406.501 20.35 406.501 18.45C406.501 17.2833 406.035 16.2833 405.101 15.45C404.201 14.6167 403.001 14.2 401.501 14.2ZM416.98 18.3C417.013 18.1333 417.03 17.95 417.03 17.75C417.063 17.5167 417.08 17.2833 417.08 17.05C417.08 16.1167 416.813 15.4667 416.28 15.1C415.747 14.7 415.047 14.5 414.18 14.5L415.73 11C417.497 11 418.847 11.4333 419.78 12.3C420.747 13.1333 421.23 14.3833 421.23 16.05V17.05C422.197 14.6833 423.43 12.9833 424.93 11.95C426.463 10.9167 428.197 10.4 430.13 10.4C430.897 10.4 431.547 10.4667 432.08 10.6C432.647 10.7 433.113 10.8333 433.48 11L431.48 15.4C431.08 15.2333 430.663 15.1167 430.23 15.05C429.797 14.9833 429.297 14.95 428.73 14.95C427.53 14.95 426.33 15.3833 425.13 16.25C423.963 17.0833 422.897 18.4833 421.93 20.45C420.997 22.4167 420.23 25.1167 419.63 28.55L418.18 37H413.68L416.98 18.3ZM451.334 37L447.434 11.35L451.784 10.75L454.734 32L464.184 12.85H468.934L471.534 32L482.034 10.75L485.734 12.65L473.284 37H468.334L465.734 17.9L456.284 37H451.334ZM493.286 6.55C492.353 6.55 491.636 6.28333 491.136 5.75C490.669 5.18333 490.436 4.53333 490.436 3.8C490.436 2.73333 490.769 1.88333 491.436 1.25C492.103 0.583332 492.936 0.249999 493.936 0.249999C494.869 0.249999 495.569 0.533332 496.036 1.1C496.536 1.63333 496.786 2.26667 496.786 3C496.786 4.03333 496.453 4.88333 495.786 5.55C495.119 6.21667 494.286 6.55 493.286 6.55ZM489.936 37H485.436L489.986 11H494.486L489.936 37ZM498.379 11.95H502.979L505.379 3.75H508.829L507.379 11.95H514.579L513.929 15.85H506.679L504.579 28C504.512 28.3667 504.462 28.7167 504.429 29.05C504.396 29.35 504.379 29.6333 504.379 29.9C504.379 31.0667 504.729 31.9833 505.429 32.65C506.129 33.2833 507.046 33.6 508.179 33.6C509.146 33.6 509.962 33.4667 510.629 33.2C511.296 32.9 511.896 32.6 512.429 32.3L512.979 36.2C512.346 36.5667 511.546 36.8833 510.579 37.15C509.646 37.45 508.596 37.6 507.429 37.6C506.196 37.6 504.996 37.35 503.829 36.85C502.696 36.35 501.762 35.5667 501.029 34.5C500.296 33.4 499.929 31.9833 499.929 30.25C499.929 29.5167 499.996 28.7 500.129 27.8L502.179 15.85H497.729L498.379 11.95ZM536.71 18.6C536.71 17.3333 536.327 16.3167 535.56 15.55C534.827 14.75 533.86 14.35 532.66 14.35C531.493 14.35 530.21 14.7667 528.81 15.6C527.443 16.4333 526.193 17.7333 525.06 19.5C523.927 21.2667 523.11 23.55 522.61 26.35L520.76 37H516.26L522.76 -4.76837e-07H527.26L524.36 16.45C525.393 14.6167 526.743 13.15 528.41 12.05C530.11 10.95 531.893 10.4 533.76 10.4C536.06 10.4 537.877 11.1 539.21 12.5C540.577 13.8667 541.26 15.55 541.26 17.55C541.26 18.3833 541.16 19.4333 540.96 20.7L538.11 37H533.61L536.36 21.45C536.527 20.65 536.627 20.0667 536.66 19.7C536.693 19.3 536.71 18.9333 536.71 18.6ZM571.244 37.6C568.777 37.6 566.644 37.1 564.844 36.1C563.044 35.1 561.644 33.7167 560.644 31.95C559.677 30.15 559.194 28.1167 559.194 25.85C559.194 22.95 559.777 20.3333 560.944 18C562.144 15.6667 563.81 13.8167 565.944 12.45C568.077 11.0833 570.594 10.4 573.494 10.4C575.96 10.4 578.094 10.9 579.894 11.9C581.694 12.9 583.077 14.2833 584.044 16.05C585.044 17.8167 585.544 19.85 585.544 22.15C585.544 25.0167 584.96 27.6333 583.794 30C582.627 32.3333 580.96 34.1833 578.794 35.55C576.66 36.9167 574.144 37.6 571.244 37.6ZM571.394 33.6C573.394 33.6 575.094 33.1167 576.494 32.15C577.927 31.15 579.027 29.8167 579.794 28.15C580.56 26.4833 580.944 24.6167 580.944 22.55C580.944 21.0167 580.644 19.65 580.044 18.45C579.444 17.2167 578.577 16.2333 577.444 15.5C576.31 14.7667 574.944 14.4 573.344 14.4C571.377 14.4 569.677 14.9 568.244 15.9C566.81 16.8667 565.71 18.1833 564.944 19.85C564.177 21.5167 563.794 23.3833 563.794 25.45C563.794 26.95 564.094 28.3167 564.694 29.55C565.294 30.7833 566.16 31.7667 567.294 32.5C568.427 33.2333 569.794 33.6 571.394 33.6ZM596.323 37.6C594.99 37.6 593.756 37.3 592.623 36.7C591.523 36.1 590.64 35.2667 589.973 34.2C589.306 33.1 588.973 31.8 588.973 30.3C588.973 29.8667 588.99 29.4333 589.023 29C589.056 28.5333 589.106 28.05 589.173 27.55L592.023 11H596.523L593.623 27.45C593.59 27.7833 593.556 28.0833 593.523 28.35C593.49 28.5833 593.473 28.85 593.473 29.15C593.473 30.65 593.906 31.7667 594.773 32.5C595.64 33.2333 596.656 33.6 597.823 33.6C599.09 33.6 600.323 33.2167 601.523 32.45C602.756 31.65 603.84 30.5167 604.773 29.05C605.706 27.5833 606.356 25.8167 606.723 23.75L608.973 11H613.473L610.173 29.95C610.14 30.1167 610.106 30.3167 610.073 30.55C610.073 30.75 610.073 30.9667 610.073 31.2C610.073 32.1333 610.34 32.8 610.873 33.2C611.406 33.5667 612.106 33.75 612.973 33.75L611.423 37.25C609.623 37.25 608.24 36.8167 607.273 35.95C606.34 35.05 605.873 33.6667 605.873 31.8V31.35C603.44 35.5167 600.256 37.6 596.323 37.6ZM620.728 18.3C620.761 18.1333 620.778 17.95 620.778 17.75C620.811 17.5167 620.828 17.2833 620.828 17.05C620.828 16.1167 620.561 15.4667 620.028 15.1C619.495 14.7 618.795 14.5 617.928 14.5L619.478 11C621.245 11 622.595 11.4333 623.528 12.3C624.495 13.1333 624.978 14.3833 624.978 16.05V17.05C625.945 14.6833 627.178 12.9833 628.678 11.95C630.211 10.9167 631.945 10.4 633.878 10.4C634.645 10.4 635.295 10.4667 635.828 10.6C636.395 10.7 636.861 10.8333 637.228 11L635.228 15.4C634.828 15.2333 634.411 15.1167 633.978 15.05C633.545 14.9833 633.045 14.95 632.478 14.95C631.278 14.95 630.078 15.3833 628.878 16.25C627.711 17.0833 626.645 18.4833 625.678 20.45C624.745 22.4167 623.978 25.1167 623.378 28.55L621.928 37H617.428L620.728 18.3Z" fill="#2B2F34"/>
</svg>
